<?xml version="1.0" standalone="no"?>
<!DOCTYPE svg PUBLIC "-//W3C//DTD SVG 20010904//EN"
 "http://www.w3.org/TR/2001/REC-SVG-20010904/DTD/svg10.dtd">
<svg version="1.0" xmlns="http://www.w3.org/2000/svg"
 width="1080.000000pt" height="1080.000000pt" viewBox="0 0 1080.000000 1080.000000"
 preserveAspectRatio="xMidYMid meet">
<metadata>
Created by potrace 1.16, written by Peter Selinger 2001-2019
</metadata>
<g transform="translate(0.000000,1080.000000) scale(0.100000,-0.100000)"
fill="#000000" stroke="none">
<path d="M5845 9598 c-2 -7 -39 -173 -80 -368 -42 -195 -78 -362 -81 -371 -3
-13 12 -19 76 -33 45 -10 83 -16 85 -14 2 2 25 100 50 218 26 118 48 216 49
218 2 1 34 -88 72 -199 38 -110 76 -204 84 -209 8 -4 27 -10 41 -14 25 -5 40
8 175 155 82 88 150 156 152 151 1 -4 -18 -104 -43 -221 -26 -117 -44 -215
-42 -217 5 -6 158 -36 161 -32 3 3 155 720 159 747 2 14 -81 40 -128 40 -13 0
-81 -66 -203 -199 -101 -110 -187 -200 -191 -200 -4 0 -48 118 -98 263 l-90
262 -49 12 c-27 7 -59 15 -72 18 -13 3 -24 0 -27 -7z"/>
<path d="M4245 9398 c-38 -11 -71 -21 -72 -22 -1 -1 6 -31 17 -67 11 -35 20
-67 20 -70 0 -4 -15 -10 -32 -13 -57 -11 -59 -15 -39 -81 10 -33 22 -59 27
-58 5 1 25 4 45 8 l36 7 32 -119 c61 -226 93 -266 220 -271 70 -4 81 -1 140
30 36 18 66 38 68 43 2 6 -14 34 -34 62 l-38 50 -27 -20 c-36 -27 -86 -26
-108 0 -19 24 -85 257 -76 272 4 5 31 15 60 22 30 6 59 15 65 18 6 4 4 27 -7
66 -8 33 -17 61 -18 63 -1 2 -34 -5 -73 -16 l-71 -20 -16 56 c-23 83 -22 82
-36 81 -7 -1 -44 -10 -83 -21z"/>
<path d="M5083 9250 c-44 -27 -66 -64 -66 -113 0 -83 59 -147 136 -147 80 0
137 58 137 140 0 111 -114 177 -207 120z"/>
<path d="M3815 9107 c-84 -28 -146 -77 -179 -141 l-14 -28 -16 30 -16 31 -73
-35 c-39 -19 -71 -40 -69 -47 2 -7 58 -130 124 -274 l121 -261 75 34 c42 19
77 36 79 38 2 2 -26 66 -61 143 -72 154 -87 203 -75 247 19 68 110 120 169 96
44 -18 55 -35 135 -205 41 -86 76 -159 79 -162 4 -5 156 63 156 69 0 16 -162
346 -187 382 -54 77 -160 112 -248 83z"/>
<path d="M6863 9103 c-21 -4 -23 -10 -23 -71 l0 -68 39 4 c100 10 231 -67 231
-134 0 -60 -11 -61 -108 -16 -114 53 -176 67 -231 52 -114 -30 -162 -155 -99
-258 47 -77 188 -137 270 -115 35 9 38 9 32 -6 -18 -45 -16 -47 56 -79 l72
-32 75 158 c93 193 103 221 103 285 0 93 -54 168 -158 221 -80 40 -205 69
-259 59z m115 -388 c77 -37 81 -45 39 -92 -29 -32 -79 -39 -132 -18 -70 26
-93 75 -59 123 22 32 67 28 152 -13z"/>
<path d="M3165 8731 c-91 -23 -190 -103 -232 -189 -36 -73 -38 -173 -6 -244
30 -67 104 -142 165 -168 74 -32 190 -25 267 14 101 52 185 149 205 238 6 25
3 27 -45 37 -76 17 -84 15 -98 -24 -24 -68 -117 -135 -186 -135 -20 0 -50 7
-67 16 l-32 17 25 19 c13 11 95 72 182 135 86 63 157 119 157 125 0 5 -28 38
-63 73 -50 50 -75 67 -117 79 -56 17 -105 19 -155 7z m103 -151 c24 -11 41
-24 37 -29 -3 -6 -56 -46 -117 -91 -122 -88 -128 -89 -128 -8 0 41 5 54 36 88
54 59 104 71 172 40z"/>
<path d="M7467 8716 c-173 -64 -255 -260 -177 -421 32 -67 108 -140 178 -173
45 -21 71 -27 127 -27 39 1 82 6 98 13 l27 12 -35 69 -35 70 -35 -10 c-104
-29 -213 81 -184 185 23 84 88 138 164 138 80 0 139 -53 153 -135 l8 -42 68
-8 c37 -5 71 -6 74 -2 14 14 3 103 -18 147 -28 60 -106 132 -177 165 -69 32
-178 41 -236 19z"/>
<path d="M7957 8269 c-163 -154 -297 -284 -297 -288 0 -4 27 -33 59 -65 l60
-59 108 104 c122 118 155 144 199 153 57 12 124 -29 151 -92 24 -58 6 -88
-143 -230 l-134 -128 59 -64 58 -65 149 141 c170 162 199 205 198 293 -1 35
-9 71 -21 96 -26 51 -107 127 -153 144 -19 7 -43 16 -53 20 -15 5 -2 23 80
102 l99 96 -54 62 c-30 33 -57 61 -61 61 -4 0 -141 -126 -304 -281z"/>
<path d="M2592 8273 c-97 -40 -172 -151 -172 -255 l0 -58 -35 0 c-106 0 -211
-106 -224 -227 l-6 -55 -26 21 -26 20 -34 -42 c-19 -23 -42 -51 -52 -64 l-18
-22 227 -188 c124 -103 230 -188 234 -188 4 0 31 29 60 63 l53 64 -29 23
c-121 96 -242 206 -258 236 -26 48 -15 102 29 146 25 25 42 33 68 33 41 0 72
-20 223 -145 62 -52 118 -95 123 -95 8 0 51 49 99 111 10 14 -7 32 -122 127
-185 154 -204 202 -118 295 20 21 35 27 68 27 46 0 60 -9 249 -164 53 -44 99
-75 104 -70 4 5 29 35 55 66 l48 58 -28 24 c-192 161 -266 219 -306 241 -62
34 -130 40 -186 18z"/>
<path d="M8749 7901 c-35 -35 -38 -79 -9 -126 37 -59 107 -69 158 -23 16 16
22 33 22 66 0 37 -6 50 -34 78 -45 45 -95 47 -137 5z"/>
<path d="M8455 7677 c-89 -62 -198 -138 -243 -170 l-83 -58 48 -69 c27 -39 53
-68 60 -66 16 6 472 326 477 335 5 7 -80 135 -92 138 -4 1 -79 -48 -167 -110z"/>
<path d="M8565 7358 c-143 -71 -261 -132 -263 -133 -3 -2 65 -144 73 -153 1
-1 71 31 155 73 126 62 160 75 201 75 40 0 55 -5 83 -30 63 -56 71 -133 18
-183 -15 -14 -96 -59 -179 -101 -84 -42 -153 -78 -153 -81 0 -3 17 -38 37 -79
l37 -74 177 89 c193 96 237 128 268 193 52 106 -2 260 -115 331 l-45 29 25 13
c14 8 26 16 26 19 0 12 -71 144 -78 143 -4 0 -124 -59 -267 -131z"/>
<path d="M1970 7331 c-75 -24 -141 -83 -182 -161 -18 -36 -23 -61 -23 -123 0
-58 -3 -76 -12 -72 -7 3 -19 7 -26 10 -8 4 -26 -22 -50 -70 l-37 -76 42 -18
c24 -10 189 -87 367 -170 179 -83 329 -150 334 -148 5 1 24 35 43 76 l33 72
-117 55 c-128 61 -134 64 -113 72 33 11 100 86 122 135 31 71 32 174 2 239
-47 103 -164 179 -286 184 -40 2 -83 0 -97 -5z m164 -194 c81 -46 107 -126 64
-206 -43 -81 -123 -101 -216 -55 -89 44 -118 131 -70 215 43 78 132 96 222 46z"/>
<path d="M8897 6720 c-99 -25 -173 -85 -212 -171 -25 -56 -27 -70 -23 -153 4
-96 23 -154 75 -229 23 -33 89 -85 97 -76 2 2 18 28 36 57 l32 52 -30 28 c-54
51 -81 133 -68 206 6 33 61 104 72 94 3 -3 31 -101 64 -218 32 -116 60 -213
62 -215 1 -1 31 6 64 16 171 53 253 235 185 410 -56 145 -214 234 -354 199z
m190 -192 c56 -52 70 -135 33 -195 -17 -28 -57 -60 -65 -51 -4 4 -75 263 -75
273 0 16 83 -4 107 -27z"/>
<path d="M1732 6614 c-146 -39 -237 -170 -237 -339 1 -103 28 -168 97 -230 60
-54 131 -80 218 -79 233 2 381 288 263 506 -44 81 -113 128 -218 147 -69 13
-57 13 -123 -5z m160 -191 c69 -40 93 -112 64 -188 -10 -25 -31 -54 -48 -66
-67 -48 -178 -30 -238 37 -59 68 -33 184 50 227 43 22 125 17 172 -10z"/>
<path d="M1196 5868 c-15 -123 -15 -128 2 -128 10 -1 195 -18 412 -39 217 -21
396 -38 397 -37 1 1 6 39 11 85 6 57 5 84 -2 87 -15 5 -745 74 -784 74 -29 0
-31 -3 -36 -42z"/>
<path d="M8792 5393 l3 -288 60 -1 c33 -1 66 1 73 4 9 3 12 52 12 198 l0 194
320 0 320 0 0 90 0 90 -395 0 -395 0 2 -287z"/>
<path d="M1633 5580 c-162 -33 -264 -190 -233 -362 21 -111 76 -190 163 -232
138 -67 308 -27 387 93 47 70 63 140 58 242 -6 94 -27 154 -74 204 l-26 28
-49 -49 c-43 -42 -47 -50 -34 -64 45 -50 59 -167 27 -230 -9 -19 -33 -45 -52
-58 l-35 -23 -7 83 c-4 46 -10 149 -14 231 l-6 147 -32 -1 c-17 -1 -50 -5 -73
-9z m12 -172 c2 -7 5 -73 8 -145 4 -132 4 -133 -18 -133 -28 0 -71 33 -90 70
-19 38 -19 113 0 151 14 27 68 69 88 69 4 0 9 -6 12 -12z"/>
<path d="M8936 5065 c-84 -30 -150 -98 -188 -193 -32 -83 -32 -228 0 -295 l24
-47 37 22 c88 53 86 50 67 85 -35 70 -10 195 49 242 29 22 72 37 81 28 3 -2
-13 -103 -35 -223 -22 -120 -39 -220 -36 -222 2 -2 28 -7 57 -11 182 -23 318
81 348 265 25 150 -55 291 -194 343 -65 24 -152 27 -210 6z m218 -190 c36 -27
56 -69 56 -115 0 -79 -45 -136 -123 -154 -27 -6 -28 -5 -23 21 3 15 15 81 27
146 12 69 26 117 33 117 6 0 20 -7 30 -15z"/>
<path d="M1430 4855 c0 -42 34 -145 49 -149 9 -3 102 -19 206 -37 105 -17 193
-35 197 -38 4 -4 -69 -60 -162 -125 -94 -66 -173 -123 -176 -128 -7 -10 29
-168 38 -168 5 0 498 349 520 369 5 5 -27 169 -35 178 -2 2 -623 113 -633 113
-2 0 -4 -7 -4 -15z"/>
<path d="M8703 4429 c-100 -49 -165 -219 -118 -310 l16 -30 -34 15 -35 14 -26
-67 c-14 -36 -26 -72 -26 -78 0 -6 37 -26 83 -43 45 -17 125 -48 177 -68 79
-31 107 -37 171 -37 66 0 81 4 118 28 47 31 91 94 122 177 16 41 22 79 23 150
1 93 1 95 -23 98 -13 2 -43 1 -65 -2 l-41 -7 -1 -72 c-1 -50 -7 -86 -22 -119
-29 -67 -98 -106 -140 -79 -11 7 -7 27 21 102 19 52 38 115 42 140 13 89 -25
159 -107 193 -50 21 -85 20 -135 -5z m106 -175 c12 -15 21 -33 21 -41 0 -19
-48 -155 -59 -166 -14 -14 -69 20 -86 53 -20 38 -19 66 4 116 31 68 84 84 120
38z"/>
<path d="M2059 4238 l-27 -62 32 -16 c63 -34 107 -141 92 -223 -7 -37 -44 -84
-56 -70 -4 4 -45 96 -90 203 -46 107 -85 197 -87 199 -8 11 -99 -36 -141 -74
-157 -142 -111 -414 88 -517 31 -16 67 -24 115 -26 125 -7 237 55 293 162 23
44 27 63 27 141 0 83 -3 96 -36 165 -20 41 -51 90 -70 109 -36 36 -87 71 -104
71 -5 0 -22 -28 -36 -62z m-107 -290 l56 -133 -38 -3 c-49 -4 -93 18 -118 60
-28 47 -35 75 -28 114 6 31 49 94 65 94 4 0 32 -60 63 -132z"/>
<path d="M8380 3800 c-23 -39 -40 -73 -38 -75 1 -2 59 -35 127 -74 164 -95
176 -104 195 -152 19 -47 15 -85 -14 -136 -21 -36 -23 -34 62 -82 l57 -32 18
33 c12 23 18 56 18 110 l0 77 22 -14 c12 -8 27 -15 32 -15 5 0 27 31 49 69
l40 69 -251 143 c-137 79 -255 145 -263 147 -7 2 -31 -29 -54 -68z"/>
<path d="M2250 3634 c-204 -38 -354 -220 -337 -409 11 -115 48 -183 262 -477
l41 -57 315 225 c173 124 316 227 318 230 4 3 -166 243 -232 326 -47 60 -116
112 -182 137 -53 20 -143 32 -185 25z m165 -193 c22 -10 56 -35 76 -55 54 -54
134 -175 123 -185 -21 -20 -376 -271 -382 -271 -11 1 -104 138 -129 189 -45
92 -23 204 55 272 77 68 177 87 257 50z"/>
<path d="M8162 3444 c-30 -36 -50 -69 -45 -74 4 -4 58 -48 120 -99 122 -100
160 -139 169 -178 18 -70 -54 -163 -125 -163 -44 0 -70 17 -234 153 -59 49
-109 88 -111 86 -1 -2 -26 -33 -55 -68 -43 -52 -50 -66 -39 -76 74 -67 293
-237 328 -255 95 -49 195 -26 279 65 48 52 66 89 76 158 7 46 8 47 26 31 10
-9 23 -14 28 -13 11 4 101 110 101 119 0 6 -447 373 -458 377 -4 2 -31 -27
-60 -63z"/>
<path d="M7679 2912 l-62 -58 202 -222 202 -222 64 57 c61 56 63 59 47 78 -41
48 -384 425 -388 425 -2 0 -31 -26 -65 -58z"/>
<path d="M3100 2801 c-62 -13 -108 -39 -154 -84 -93 -93 -127 -218 -91 -328
34 -102 160 -199 257 -199 15 0 28 -2 28 -5 0 -3 -36 -53 -80 -112 -44 -58
-80 -109 -80 -112 1 -5 87 -70 126 -94 8 -5 93 101 258 323 135 181 246 331
246 333 0 2 -29 25 -65 51 l-65 48 -19 -24 c-19 -22 -20 -22 -26 -3 -20 60
-31 79 -65 114 -68 70 -185 109 -270 92z m163 -186 c74 -51 89 -137 38 -218
-71 -111 -195 -114 -269 -6 -32 46 -26 114 14 171 56 79 146 101 217 53z"/>
<path d="M7470 2730 c-30 -22 -59 -41 -65 -43 -5 -2 26 -57 71 -123 98 -144
124 -193 124 -235 0 -46 -34 -94 -85 -119 -38 -18 -50 -20 -78 -11 -45 15 -69
43 -167 191 -45 69 -86 128 -89 132 -4 4 -39 -14 -79 -40 l-72 -48 116 -170
c120 -175 134 -191 196 -224 109 -58 274 12 336 141 28 59 29 59 42 34 7 -14
17 -25 22 -25 15 0 128 80 128 91 0 18 -321 489 -333 489 -7 0 -37 -18 -67
-40z"/>
<path d="M6733 2536 c-148 -28 -272 -107 -319 -201 -23 -49 -26 -64 -22 -128
4 -64 18 -106 107 -328 57 -140 106 -258 110 -262 4 -4 40 5 80 20 73 29 75
30 55 77 -7 17 -4 18 22 10 127 -39 288 35 350 162 66 135 9 304 -128 379 -45
25 -64 29 -128 30 -111 0 -193 -38 -250 -116 l-28 -39 -11 31 c-6 18 -11 50
-11 72 0 35 6 46 43 82 56 54 131 78 226 73 l71 -3 5 45 c3 25 8 55 11 67 2
12 0 24 -4 27 -21 13 -114 14 -179 2z m168 -419 c99 -66 86 -203 -24 -256 -84
-41 -163 -18 -205 60 -28 52 -25 102 8 149 48 68 156 91 221 47z"/>
<path d="M8162 2420 c-118 -73 -32 -244 88 -174 15 9 35 29 44 44 54 92 -42
186 -132 130z"/>
<path d="M3671 2410 c-12 -6 -21 -16 -19 -23 3 -6 13 -35 22 -63 l17 -52 39 5
c110 15 230 -75 230 -172 0 -14 -4 -25 -9 -25 -5 0 -98 43 -207 95 -221 106
-207 106 -239 16 -68 -196 73 -395 291 -409 134 -9 234 50 295 173 29 58 31
70 27 142 -5 94 -25 140 -88 204 -68 68 -166 112 -260 116 -41 1 -86 -2 -99
-7z m121 -371 l122 -61 -32 -29 c-62 -55 -175 -33 -222 43 -24 40 -27 108 -5
108 8 0 70 -28 137 -61z"/>
<path d="M4235 1798 c-104 -193 -191 -357 -193 -363 -3 -13 154 -42 166 -31 3
4 61 107 127 230 66 122 127 233 135 245 14 21 18 6 48 -225 19 -137 36 -265
39 -285 5 -36 6 -37 67 -49 33 -6 70 -14 81 -16 22 -5 9 -27 205 329 50 93 94
167 96 165 2 -2 20 -128 39 -279 20 -150 39 -277 43 -280 10 -9 172 -37 176
-30 3 6 -105 803 -109 809 -7 9 -187 34 -194 26 -5 -5 -67 -114 -137 -243 -70
-128 -129 -230 -131 -225 -1 5 -19 128 -38 274 -20 145 -37 265 -38 266 -3 3
-172 34 -183 34 -5 0 -94 -158 -199 -352z"/>
<path d="M5863 1881 c-117 -73 -81 -246 55 -259 95 -9 156 51 149 146 -3 45
-9 59 -39 89 -46 46 -115 56 -165 24z"/>
</g>
</svg>
