<svg xmlns="http://www.w3.org/2000/svg" width="1158" height="1156" viewBox="0 0 1158 1156" version="1.1"><path d="M 543 0.594 C 541.075 0.809, 533.650 1.470, 526.500 2.063 C 400.537 12.505, 275.299 68.896, 182.738 156.849 C 104.836 230.873, 51.783 317.905, 22.490 419.734 C 5.495 478.810, -3.163 557.424, 1.039 614.500 C 10.322 740.607, 56.784 855.612, 136.983 951 C 151.136 967.833, 188.388 1005.179, 205 1019.187 C 300.852 1100.017, 415.827 1146.455, 541.481 1155.091 C 563.299 1156.590, 617.311 1155.729, 637 1153.568 C 721.128 1144.333, 794.152 1121.121, 864.500 1081.253 C 993.587 1008.097, 1091.370 885.774, 1133.343 744.938 C 1138.478 727.708, 1148.753 686.109, 1151.853 670 C 1159.729 629.071, 1160.815 575.900, 1154.937 519 C 1141.191 385.954, 1083.284 264.300, 988.542 169.434 C 901.139 81.916, 789.642 25.095, 669 6.588 C 636.540 1.609, 625.550 0.812, 585 0.500 C 563.825 0.337, 544.925 0.380, 543 0.594 M 550.500 16.070 C 440.996 21.669, 336.155 58.809, 247.800 123.302 C 233.610 133.660, 209.032 153.149, 199.500 161.601 C 190.816 169.302, 160.251 201.818, 148.129 216.252 C 118.973 250.969, 96.207 285.828, 75.148 328 C 41.112 396.161, 20.823 472.457, 17.342 545.381 C 16.779 557.185, 16.894 559.252, 18.088 558.776 C 35.915 551.675, 91.122 530.827, 111.500 523.500 C 262.003 469.387, 374.722 445.731, 512.185 439.412 L 526.870 438.737 532.839 426.619 C 549.828 392.123, 576.697 362.814, 609.487 343.008 C 664.960 309.500, 736.443 305.659, 795.633 333.005 C 828.716 348.290, 858.636 374.222, 879.277 405.500 C 889.714 421.316, 899.345 442.946, 904.420 461.967 L 906.679 470.433 923.399 474.152 C 971.178 484.779, 1002.380 495.723, 1082 529.782 C 1132.354 551.322, 1138.835 554, 1140.600 554 C 1141.501 554, 1141.738 552.517, 1141.438 548.750 C 1141.208 545.862, 1140.543 537.425, 1139.958 530 C 1132.701 437.760, 1100.741 346.097, 1048.349 267.257 C 1011.930 212.454, 968.173 166.240, 915.500 126.950 C 810.146 48.364, 681.747 9.359, 550.500 16.070 M 693.107 327.143 C 628.124 333.936, 571.541 373.638, 542.956 432.500 C 539.751 439.100, 536.826 445.738, 536.456 447.250 C 536.062 448.859, 535.102 450.001, 534.142 450.002 C 528.063 450.007, 486.986 452.277, 470 453.546 C 401.046 458.697, 334.016 469.793, 267 487.149 C 254.075 490.497, 242.375 493.446, 241 493.703 C 238.193 494.227, 189.696 508.278, 172 513.694 C 157.302 518.193, 107.946 535.583, 79.500 546.286 L 57.500 554.564 57.187 558.330 C 56.746 563.624, 59.359 575.399, 63.305 585.904 C 69.698 602.925, 82.448 619.700, 97.328 630.669 C 109.022 639.290, 127.598 647.284, 135.618 647.148 C 137.883 647.110, 147.911 644.594, 157.902 641.557 C 167.894 638.520, 185.391 633.513, 196.784 630.429 C 208.178 627.346, 220.448 623.780, 224.052 622.504 C 232.283 619.592, 267.406 611.442, 297.500 605.462 C 368.417 591.370, 447.155 582.041, 517.559 579.390 L 535.618 578.710 537.457 583.605 C 542.886 598.048, 554.965 618.441, 566.715 633 C 605.413 680.950, 669.790 707.607, 730.789 700.938 C 787.941 694.690, 837.957 664.193, 869.268 616.500 C 872.518 611.550, 875.305 607.369, 875.462 607.210 C 875.947 606.716, 917.445 615.906, 938.188 621.102 C 986.369 633.169, 1048.702 653.033, 1103.500 673.783 C 1119.450 679.822, 1133.260 685.079, 1134.189 685.465 C 1135.526 686.021, 1136.090 685.369, 1136.898 682.334 C 1139.115 674.005, 1143.020 650.435, 1144.470 636.622 C 1146.031 621.766, 1146.476 581.599, 1145.176 573.065 L 1144.500 568.629 1137 565.656 C 1132.875 564.021, 1109.025 553.933, 1084 543.239 C 1012.361 512.626, 989.954 504.116, 954.328 493.990 C 937.226 489.129, 902.565 481, 898.942 481 C 897.779 481, 896.849 480.125, 896.551 478.750 C 889.027 444.001, 874.783 415.014, 853.070 390.266 C 813.315 344.953, 752.460 320.939, 693.107 327.143 M 701 372.526 C 700.175 372.688, 696.125 373.360, 692 374.020 C 649.265 380.862, 608.448 412.958, 590.473 453.856 C 582.384 472.262, 579.010 488.799, 579.004 510.074 C 578.999 526.231, 580.908 538.701, 585.521 552.651 C 592.545 573.889, 603.235 591.281, 618.969 607.066 C 638.884 627.046, 662.570 639.801, 690.500 645.584 C 702.806 648.133, 729.767 648.171, 742.374 645.658 C 799.050 634.361, 840.444 593.162, 852.677 535.875 C 855.139 524.345, 855.150 496.092, 852.696 483.818 C 841.250 426.551, 795.973 382.790, 738.530 373.473 C 730.794 372.218, 705.791 371.587, 701 372.526 M 699.500 384.116 C 645.947 391.896, 603.802 431.671, 592.277 485.308 C 589.786 496.901, 589.845 523.294, 592.387 535 C 602.374 580.981, 634.769 616.805, 679 630.780 C 692.680 635.103, 701.643 636.396, 717.500 636.338 C 751.788 636.211, 782.209 623.517, 806.244 599.307 C 821.078 584.365, 830.715 568.990, 836.896 550.404 C 841.951 535.204, 843.289 526.917, 843.337 510.500 C 843.385 494.103, 841.846 483.760, 837.351 470.290 C 824.372 431.391, 792.718 400.434, 753.779 388.557 C 737.539 383.603, 715.460 381.797, 699.500 384.116 M 703.500 413.651 C 670.130 419.030, 643.016 439.349, 628.841 469.597 C 622.202 483.765, 620.682 491.137, 620.615 509.500 C 620.552 526.452, 621.331 531.116, 626.546 545.006 C 641.687 585.335, 685.255 611.518, 728.046 606.005 C 754.973 602.535, 778.635 588.892, 794.636 567.608 C 807.740 550.178, 815.276 524.619, 813.570 503.389 C 810.149 460.808, 781.608 426.770, 740.175 415.859 C 732.591 413.861, 710.459 412.529, 703.500 413.651 M 700.500 421.436 C 662.755 428.932, 634.050 458.597, 627.950 496.411 C 626.157 507.527, 627.207 523.409, 630.466 534.451 C 639.913 566.459, 665.076 590.089, 697.786 597.667 C 707.832 599.994, 726.784 599.988, 736.353 597.653 C 770.549 589.310, 796.261 563.604, 804.660 529.363 C 807.176 519.104, 806.963 499.941, 804.208 488.791 C 796.431 457.310, 772.741 432.697, 741.288 423.422 C 730.332 420.191, 711.408 419.269, 700.500 421.436 M 0.422 586 C 0.422 597.275, 0.568 601.888, 0.746 596.250 C 0.924 590.612, 0.924 581.388, 0.746 575.750 C 0.568 570.112, 0.422 574.725, 0.422 586 M 509.500 590.662 C 506.750 590.828, 496.400 591.439, 486.500 592.020 C 336.991 600.798, 191.976 633.763, 30.250 695.735 C 28.293 696.485, 28.735 700.290, 32.509 715.172 C 77.404 892.205, 209.183 1038.445, 381.500 1102.461 C 437.760 1123.361, 494.301 1134.533, 555.950 1136.930 C 698.347 1142.468, 831.149 1097.169, 941.500 1005.421 C 957.009 992.527, 993.728 956.102, 1007.450 940 C 1062.760 875.094, 1102.295 799.080, 1123.950 716 C 1126.172 707.475, 1127.991 699.150, 1127.993 697.500 L 1127.995 694.500 1099.007 683.650 C 1036.992 660.438, 985.768 644.186, 933.500 631.140 C 911.835 625.733, 885.636 620, 882.589 620 C 880.733 620, 879.274 621.214, 876.879 624.750 C 861.936 646.811, 839.236 668.671, 816.860 682.547 C 779.757 705.555, 733.988 716.477, 693.500 711.985 C 668.518 709.213, 646.623 702.969, 625.500 692.593 C 602.494 681.292, 586.410 669.494, 568.404 650.711 C 552.792 634.426, 541.380 617.895, 532.477 598.669 L 528.500 590.080 521.500 590.220 C 517.650 590.297, 512.250 590.496, 509.500 590.662" stroke="none" fill="#231f20" fill-rule="evenodd"/><path d="M 305.231 109.566 C 228.032 121.983, 154.988 188.569, 139.865 260.312 C 136.847 274.629, 136.852 294.052, 139.877 306.500 C 144.141 324.046, 154.160 340.328, 167.275 351.028 C 175.743 357.937, 191.297 365.482, 203.500 368.601 C 222.814 373.536, 249.734 372.880, 272.622 366.915 C 291.077 362.106, 313.096 352.578, 329.910 342.127 C 357.587 324.924, 383.960 298.933, 400.092 272.961 C 423.647 235.039, 430.452 194.158, 418.497 162.395 C 411.210 143.035, 397.861 128.525, 378.500 118.917 C 363.119 111.285, 352.170 108.840, 331.500 108.420 C 319.720 108.181, 311.654 108.533, 305.231 109.566 M 697.585 385.107 C 655.006 391.317, 616.798 421.432, 599.964 462.050 C 594.248 475.841, 591.868 487.773, 591.296 505.500 C 590.907 517.562, 591.172 523.748, 592.370 530.636 C 600.168 575.438, 631.058 612.716, 673.152 628.124 C 698.718 637.482, 727.941 638.324, 753.766 630.447 C 792.323 618.687, 823.348 588.464, 836.559 549.796 C 841.073 536.585, 842.418 527.507, 842.457 510 C 842.507 487.902, 839.762 475.091, 830.911 456.111 C 813.729 419.264, 778.305 392.353, 738.074 385.586 C 727.968 383.886, 707.608 383.645, 697.585 385.107 M 703.585 413.107 C 664.515 418.805, 632.521 447.315, 622.345 485.500 C 618.650 499.365, 618.458 519.150, 621.890 532.378 C 626.386 549.706, 633.662 563.246, 644.927 575.245 C 665.329 596.975, 688.279 607.123, 716.977 607.103 C 729.946 607.094, 738.615 605.549, 751.152 601.012 C 774.914 592.415, 796.570 571.705, 806.533 548.054 C 819.296 517.753, 816.226 483.353, 798.343 456.308 C 793.198 448.525, 780.889 435.734, 773.500 430.491 C 753.290 416.150, 727.198 409.663, 703.585 413.107 M 699 422.366 C 665.105 430.256, 639.466 454.267, 630.517 486.500 C 628.233 494.726, 627.381 516.305, 628.982 525.378 C 633.990 553.760, 651.983 577.260, 678.462 590.002 C 693.213 597.100, 699.550 598.462, 717.500 598.392 C 730.804 598.340, 733.495 598.031, 741.297 595.657 C 756.620 590.996, 766.939 584.984, 778.362 574.061 C 790.292 562.653, 797.740 550.462, 802.657 534.297 C 805.031 526.495, 805.340 523.804, 805.392 510.500 C 805.436 499.122, 805.014 493.810, 803.641 488.500 C 801.060 478.513, 793.124 462.642, 786.441 454.100 C 775.874 440.595, 758.254 428.900, 741 423.939 C 731.647 421.250, 707.656 420.352, 699 422.366 M 506 591.112 C 410.460 596.143, 321.044 609.489, 232.132 631.989 C 219.280 635.241, 208.555 638.112, 208.298 638.369 C 207.038 639.629, 219.082 677.956, 227.665 700 C 236.173 721.852, 250.443 751.514, 260.060 767.337 C 261.118 769.077, 262.288 771.175, 262.662 772 C 263.300 773.408, 269.687 783.481, 277.880 796 C 279.860 799.025, 283.397 804.053, 285.740 807.174 C 288.083 810.295, 290 813.295, 290 813.841 C 290 814.387, 290.404 814.983, 290.899 815.167 C 291.393 815.350, 295.077 819.775, 299.084 825 C 303.091 830.225, 306.640 834.725, 306.970 835 C 307.299 835.275, 308.453 836.653, 309.534 838.062 C 320.393 852.216, 358.429 890.310, 372.510 901.133 C 374.155 902.397, 375.725 903.701, 376 904.030 C 376.275 904.360, 380.775 907.909, 386 911.916 C 391.225 915.923, 395.650 919.607, 395.833 920.101 C 396.017 920.596, 396.613 921, 397.159 921 C 397.705 921, 400.705 922.917, 403.826 925.260 C 406.947 927.603, 411.975 931.148, 415 933.138 C 424.653 939.488, 432.455 944.463, 434 945.255 C 434.825 945.678, 436.850 946.893, 438.500 947.956 C 445.900 952.722, 471.812 966.233, 487 973.246 C 533.410 994.673, 587.781 1009.370, 644 1015.684 C 666.272 1018.186, 725.066 1018.195, 747.500 1015.701 C 780.890 1011.989, 808.338 1006.431, 841.500 996.666 C 855.125 992.653, 879.111 984.241, 887.619 980.490 C 889.479 979.671, 892.688 978.277, 894.750 977.393 C 915.372 968.552, 945.381 953.006, 959 944.107 C 962.025 942.131, 965.175 940.168, 966 939.745 C 968.807 938.307, 982.366 929.214, 988.635 924.566 C 990.910 922.880, 993.764 920.825, 994.979 920 C 996.193 919.175, 998.020 917.825, 999.038 917 C 1000.056 916.175, 1002.367 914.375, 1004.174 913 C 1008.190 909.943, 1029.732 891.928, 1032.500 889.311 C 1033.600 888.271, 1040.125 882.570, 1047 876.642 C 1057.503 867.585, 1060.433 864.396, 1065.343 856.682 C 1078.001 836.792, 1097.587 794.709, 1109.037 762.799 C 1116.844 741.044, 1129.181 696.848, 1127.826 695.492 C 1127.160 694.827, 1093.931 682.306, 1069.500 673.515 C 1009.562 651.949, 945.052 633.203, 894 622.517 C 881.697 619.942, 881.476 619.931, 880 621.830 C 879.175 622.892, 875.623 627.695, 872.106 632.505 C 854.146 657.067, 827.376 679.378, 799.596 692.936 C 773.339 705.751, 748.396 711.800, 718 712.724 C 697.501 713.347, 680.972 711.623, 662.349 706.920 C 606.758 692.880, 558.572 653.655, 533.261 601.835 C 527.752 590.555, 527.369 590.045, 524.500 590.167 C 522.850 590.238, 514.525 590.663, 506 591.112" stroke="none" fill="#ffffff" fill-rule="evenodd"/><path d="M 712.750 383.732 C 715.087 383.943, 718.913 383.943, 721.250 383.732 C 723.587 383.522, 721.675 383.349, 717 383.349 C 712.325 383.349, 710.413 383.522, 712.750 383.732 M 712.750 412.732 C 715.087 412.943, 718.913 412.943, 721.250 412.732 C 723.587 412.522, 721.675 412.349, 717 412.349 C 712.325 412.349, 710.413 412.522, 712.750 412.732 M 712.776 420.733 C 715.128 420.945, 718.728 420.942, 720.776 420.727 C 722.824 420.512, 720.900 420.339, 716.500 420.343 C 712.100 420.346, 710.424 420.522, 712.776 420.733 M 590.360 510 C 590.360 515.225, 590.529 517.362, 590.735 514.750 C 590.941 512.138, 590.941 507.863, 590.735 505.250 C 590.529 502.637, 590.360 504.775, 590.360 510 M 619.355 509.500 C 619.352 514.450, 619.521 516.601, 619.731 514.280 C 619.940 511.959, 619.943 507.909, 619.736 505.280 C 619.530 502.651, 619.358 504.550, 619.355 509.500 M 627.349 510 C 627.349 514.675, 627.522 516.587, 627.732 514.250 C 627.943 511.913, 627.943 508.087, 627.732 505.750 C 627.522 503.413, 627.349 505.325, 627.349 510 M 868.116 636.750 C 865.219 640.481, 864.509 641.711, 866.529 639.500 C 870.397 635.267, 874.400 630, 873.748 630 C 873.534 630, 871 633.038, 868.116 636.750 M 182.500 645.095 C 135.636 658.641, 94.585 672.265, 50 689.071 L 29.500 696.799 29.768 700.149 C 29.915 701.992, 32.062 711.050, 34.538 720.278 C 55.676 799.029, 93.557 871.685, 147.040 936.055 C 160.358 952.084, 199.916 991.642, 215.945 1004.960 C 282.318 1060.108, 357.226 1098.681, 438.305 1119.464 C 467.206 1126.872, 484.964 1130.066, 524.500 1134.968 C 550.385 1138.177, 604.781 1137.952, 637.500 1134.500 C 750.837 1122.542, 852.603 1079.332, 941.500 1005.421 C 956.986 992.546, 993.699 956.132, 1007.458 940 C 1017.652 928.049, 1041.034 897.360, 1043.269 893 C 1044.676 890.253, 1048.545 884.167, 1059.479 867.500 C 1066.286 857.122, 1070.052 850.783, 1068.641 852.078 C 1068.294 852.396, 1066.096 855.619, 1063.755 859.240 C 1060.746 863.895, 1055.839 868.986, 1047 876.622 C 1040.125 882.561, 1033.600 888.271, 1032.500 889.311 C 1029.732 891.928, 1008.190 909.943, 1004.174 913 C 1002.367 914.375, 1000.056 916.175, 999.038 917 C 998.020 917.825, 996.193 919.175, 994.979 920 C 993.764 920.825, 990.910 922.880, 988.635 924.566 C 982.366 929.214, 968.807 938.307, 966 939.745 C 965.175 940.168, 962.025 942.131, 959 944.107 C 945.381 953.006, 915.372 968.552, 894.750 977.393 C 892.688 978.277, 889.479 979.671, 887.619 980.490 C 864.685 990.600, 820.821 1003.538, 790 1009.283 C 752.314 1016.307, 738.685 1017.486, 695.500 1017.452 C 649.342 1017.417, 623.800 1014.711, 583.500 1005.587 C 537.956 995.275, 498.627 980.490, 455.500 957.465 C 443.689 951.160, 442.058 950.247, 438.500 947.956 C 436.850 946.893, 434.825 945.678, 434 945.255 C 432.455 944.463, 424.653 939.488, 415 933.138 C 411.975 931.148, 406.947 927.603, 403.826 925.260 C 400.705 922.917, 397.705 921, 397.159 921 C 396.613 921, 396.017 920.596, 395.833 920.101 C 395.650 919.607, 391.225 915.923, 386 911.916 C 380.775 907.909, 376.275 904.360, 376 904.030 C 375.725 903.701, 374.155 902.397, 372.510 901.133 C 358.429 890.310, 320.393 852.216, 309.534 838.062 C 308.453 836.653, 307.299 835.275, 306.970 835 C 306.640 834.725, 303.091 830.225, 299.084 825 C 295.077 819.775, 291.393 815.350, 290.899 815.167 C 290.404 814.983, 290 814.387, 290 813.841 C 290 813.295, 288.083 810.295, 285.740 807.174 C 283.397 804.053, 279.860 799.025, 277.880 796 C 269.687 783.481, 263.300 773.408, 262.662 772 C 262.288 771.175, 261.118 769.077, 260.060 767.337 C 255.379 759.635, 243.922 737.378, 237.752 724 C 228.063 702.992, 218.297 676.135, 211.480 651.750 C 209.366 644.188, 207.380 638.036, 207.068 638.079 C 206.756 638.123, 195.700 641.280, 182.500 645.095 M 570.982 654.250 C 576.747 660.163, 581.585 665, 581.732 665 C 582.454 665, 581.235 663.718, 571.250 653.982 L 560.500 643.500 570.982 654.250 M 851.982 654.750 L 841.500 665.500 852.250 655.018 C 862.235 645.282, 863.454 644, 862.732 644 C 862.585 644, 857.747 648.837, 851.982 654.750 M 834.831 669.806 C 828.040 675.429, 826.408 677.111, 830.500 674.269 C 833.981 671.851, 841.737 665.077, 841 665.097 C 840.725 665.105, 837.949 667.224, 834.831 669.806 M 819.323 680.833 C 809.060 687.506, 807.824 688.475, 813.500 685.396 C 819.161 682.326, 827 677.132, 827 676.452 C 827 675.820, 827.264 675.669, 819.323 680.833 M 800 692 C 795.875 694.146, 792.849 695.923, 793.275 695.951 C 794.338 696.018, 808 689.094, 808 688.487 C 808 687.812, 808.329 687.668, 800 692 M 1081.716 826.544 C 1078.027 833.945, 1075.229 840, 1075.498 840 C 1076.159 840, 1089.212 813.879, 1088.771 813.438 C 1088.579 813.246, 1085.404 819.143, 1081.716 826.544" stroke="none" fill="#a19e9e" fill-rule="evenodd"/><path d="M 571.750 15.743 C 575.737 15.932, 582.263 15.932, 586.250 15.743 C 590.237 15.553, 586.975 15.397, 579 15.397 C 571.025 15.397, 567.763 15.553, 571.750 15.743 M 190.477 170.250 L 182.500 178.500 190.750 170.523 C 198.412 163.115, 199.456 162, 198.727 162 C 198.576 162, 194.864 165.713, 190.477 170.250 M 976.500 180 C 980.320 183.850, 983.671 187, 983.946 187 C 984.221 187, 981.320 183.850, 977.500 180 C 973.680 176.150, 970.329 173, 970.054 173 C 969.779 173, 972.680 176.150, 976.500 180 M 708.750 314.723 C 710.538 314.945, 713.462 314.945, 715.250 314.723 C 717.038 314.502, 715.575 314.320, 712 314.320 C 708.425 314.320, 706.962 314.502, 708.750 314.723 M 693.107 327.143 C 628.124 333.936, 571.541 373.638, 542.956 432.500 C 539.751 439.100, 536.826 445.738, 536.456 447.250 C 536.062 448.859, 535.102 450.001, 534.142 450.002 C 528.063 450.007, 486.986 452.277, 470 453.546 C 401.046 458.697, 334.016 469.793, 267 487.149 C 254.075 490.497, 242.375 493.446, 241 493.703 C 238.193 494.227, 189.696 508.278, 172 513.694 C 157.302 518.193, 107.946 535.583, 79.500 546.286 L 57.500 554.564 57.187 558.330 C 56.746 563.624, 59.359 575.399, 63.305 585.904 C 69.698 602.925, 82.448 619.700, 97.328 630.669 C 109.022 639.290, 127.598 647.284, 135.618 647.148 C 137.883 647.110, 147.911 644.594, 157.902 641.557 C 167.894 638.520, 185.391 633.513, 196.784 630.429 C 208.178 627.346, 220.448 623.780, 224.052 622.504 C 232.283 619.592, 267.406 611.442, 297.500 605.462 C 368.417 591.370, 447.155 582.041, 517.559 579.390 L 535.618 578.710 537.457 583.605 C 542.886 598.048, 554.965 618.441, 566.715 633 C 605.413 680.950, 669.790 707.607, 730.789 700.938 C 787.941 694.690, 837.957 664.193, 869.268 616.500 C 872.518 611.550, 875.305 607.369, 875.462 607.210 C 875.947 606.716, 917.445 615.906, 938.188 621.102 C 986.369 633.169, 1048.702 653.033, 1103.500 673.783 C 1119.450 679.822, 1133.260 685.079, 1134.189 685.465 C 1135.526 686.021, 1136.090 685.369, 1136.898 682.334 C 1139.115 674.005, 1143.020 650.435, 1144.470 636.622 C 1146.031 621.766, 1146.476 581.599, 1145.176 573.065 L 1144.500 568.629 1137 565.656 C 1132.875 564.021, 1109.025 553.933, 1084 543.239 C 1012.361 512.626, 989.954 504.116, 954.328 493.990 C 937.226 489.129, 902.565 481, 898.942 481 C 897.779 481, 896.849 480.125, 896.551 478.750 C 889.027 444.001, 874.783 415.014, 853.070 390.266 C 813.315 344.953, 752.460 320.939, 693.107 327.143 M 570.469 373.250 L 564.500 379.500 570.750 373.531 C 574.188 370.249, 577 367.436, 577 367.281 C 577 366.542, 576.013 367.444, 570.469 373.250 M 852.500 373 C 855.766 376.300, 858.662 379, 858.937 379 C 859.212 379, 856.766 376.300, 853.500 373 C 850.234 369.700, 847.338 367, 847.063 367 C 846.788 367, 849.234 369.700, 852.500 373 M 701 372.526 C 700.175 372.688, 696.125 373.360, 692 374.020 C 649.265 380.862, 608.448 412.958, 590.473 453.856 C 582.384 472.262, 579.010 488.799, 579.004 510.074 C 578.999 526.231, 580.908 538.701, 585.521 552.651 C 592.545 573.889, 603.235 591.281, 618.969 607.066 C 638.884 627.046, 662.570 639.801, 690.500 645.584 C 702.806 648.133, 729.767 648.171, 742.374 645.658 C 799.050 634.361, 840.444 593.162, 852.677 535.875 C 855.139 524.345, 855.150 496.092, 852.696 483.818 C 841.250 426.551, 795.973 382.790, 738.530 373.473 C 730.794 372.218, 705.791 371.587, 701 372.526 M 843.349 510 C 843.349 514.675, 843.522 516.587, 843.732 514.250 C 843.943 511.913, 843.943 508.087, 843.732 505.750 C 843.522 503.413, 843.349 505.325, 843.349 510 M 713.250 636.728 C 715.313 636.944, 718.688 636.944, 720.750 636.728 C 722.813 636.513, 721.125 636.336, 717 636.336 C 712.875 636.336, 711.188 636.513, 713.250 636.728 M 52 776.323 C 52 777.580, 57.250 790.083, 57.622 789.711 C 57.828 789.505, 56.827 786.448, 55.398 782.918 C 52.867 776.666, 52 774.983, 52 776.323 M 58.074 791.184 C 57.956 792.274, 63.243 804.091, 63.661 803.672 C 63.869 803.464, 62.714 800.416, 61.094 796.897 C 59.474 793.379, 58.115 790.808, 58.074 791.184 M 64.097 805.500 C 64.097 806.050, 65.628 809.425, 67.500 813 C 69.372 816.575, 70.903 819.050, 70.903 818.500 C 70.903 817.950, 69.372 814.575, 67.500 811 C 65.628 807.425, 64.097 804.950, 64.097 805.500 M 71.008 820.401 C 70.996 821.718, 87.118 851.598, 94.199 863.381 C 142.205 943.271, 208.917 1009.978, 288.722 1057.888 C 303.593 1066.816, 337.770 1085.020, 339.587 1084.980 C 340.089 1084.969, 332.671 1080.912, 323.102 1075.964 C 266.912 1046.907, 225.428 1016.548, 180.440 971.560 C 137.256 928.376, 109.100 890.381, 79.613 835.500 C 74.885 826.700, 71.013 819.905, 71.008 820.401 M 359 1093.288 C 359 1093.969, 377.141 1101.192, 377.628 1100.705 C 377.841 1100.493, 374.299 1098.852, 369.757 1097.059 C 365.216 1095.266, 360.938 1093.572, 360.250 1093.293 C 359.563 1093.014, 359 1093.012, 359 1093.288 M 390.088 1105.380 C 390.862 1106.209, 405.041 1111.021, 406.425 1110.926 C 407.016 1110.885, 404.500 1109.802, 400.834 1108.520 C 391.624 1105.298, 389.405 1104.650, 390.088 1105.380" stroke="none" fill="#58585a" fill-rule="evenodd"/><path d="M 543 16.611 C 504.907 19.772, 474.536 24.509, 444.250 32.014 C 369.175 50.617, 299.273 84.030, 239 130.120 C 222.790 142.516, 220.271 144.853, 229.500 138.934 C 239.827 132.311, 263.109 120.929, 274.079 117.140 C 290.982 111.302, 304.970 108.765, 323.175 108.234 C 341.892 107.689, 352.053 108.789, 364.476 112.705 C 394.776 122.258, 415.166 143.967, 422.653 174.647 C 424.955 184.077, 424.979 206.575, 422.700 218.076 C 416.442 249.659, 399.615 279.926, 373.042 307.398 C 340.365 341.181, 298.277 363.972, 256.461 370.529 C 241.780 372.831, 215.063 372.132, 204 369.157 C 184.155 363.819, 171.285 356.473, 159.266 343.625 C 125.274 307.288, 131.008 244.493, 173.292 190 C 180.010 181.341, 176.165 184.866, 163.496 198.977 C 76.434 295.955, 27.261 410.668, 17.957 538.500 C 17.316 547.300, 16.951 555.452, 17.146 556.616 C 17.480 558.612, 18.945 558.172, 43 548.867 C 147.287 508.524, 231.392 481.889, 306 465.576 C 371.868 451.175, 443.395 441.954, 509.151 439.387 L 526.707 438.702 531.897 427.934 C 541.890 407.203, 554.536 389.420, 570.978 372.978 C 587.748 356.208, 603.616 344.952, 625.287 334.455 C 723.251 287.002, 841.639 327.235, 890.249 424.500 C 896.580 437.168, 902.120 451.495, 904.566 461.527 C 905.501 465.362, 906.768 468.996, 907.383 469.601 C 907.997 470.207, 914.350 471.952, 921.500 473.480 C 939.618 477.351, 966.522 484.786, 986.270 491.379 C 1009.181 499.028, 1033.097 508.572, 1083 529.982 C 1122.966 547.129, 1139.423 554, 1140.526 554 C 1142.143 554, 1139.357 519.188, 1135.885 496 C 1120.124 390.734, 1077.268 296.099, 1008.178 214 C 994.461 197.700, 957.860 161.194, 942.055 148.050 C 861.294 80.883, 767.449 38.031, 667.019 22.461 C 635.904 17.637, 624.319 16.797, 585 16.511 C 564.375 16.361, 545.475 16.406, 543 16.611" stroke="none" fill="#ef4036" fill-rule="evenodd"/></svg>